<svg width="25" height="45" viewBox="0 0 25 45" fill="none" xmlns="http://www.w3.org/2000/svg">
<mask id="path-1-inside-1_1_63" fill="white">
<path d="M0 7C0 6.44771 0.447715 6 1 6H20C22.7614 6 25 8.23858 25 11V34C25 36.7614 22.7614 39 20 39H1C0.447716 39 0 38.5523 0 38V7Z"/>
</mask>
<path d="M0 7C0 6.44771 0.447715 6 1 6H20C22.7614 6 25 8.23858 25 11V34C25 36.7614 22.7614 39 20 39H1C0.447716 39 0 38.5523 0 38V7Z" stroke="#E11D48" stroke-width="3" stroke-linejoin="round" mask="url(#path-1-inside-1_1_63)"/>
<path d="M16.875 6.9995L16.875 38.0005" stroke="#E11D48" stroke-width="1.5"/>
<ellipse cx="20.5" cy="11.5" rx="1.5" ry="2.5" stroke="#E11D48" stroke-width="1.5"/>
<ellipse cx="20.5" cy="33.5" rx="1.5" ry="2.5" stroke="#E11D48" stroke-width="1.5"/>
<path d="M19 16.8143V27.8143" stroke="#E11D48" stroke-linecap="round"/>
<path d="M22 16.8143V27.8143" stroke="#E11D48" stroke-linecap="round"/>
<path d="M14.6905 0.707332C14.5289 0.325958 14.0887 0.147824 13.7073 0.30946C13.326 0.471096 13.1478 0.911293 13.3095 1.29267L14.6905 0.707332ZM17.1548 6.52163L14.6905 0.707332L13.3095 1.29267L15.7737 7.10697L17.1548 6.52163Z" fill="#E11D48"/>
<path d="M13.3092 43.4506C13.1479 43.8321 13.3264 44.2722 13.7079 44.4335C14.0894 44.5949 14.5294 44.4164 14.6908 44.0349L13.3092 43.4506ZM15.738 37.7079L13.3092 43.4506L14.6908 44.0349L17.1195 38.2921L15.738 37.7079Z" fill="#E11D48"/>
<path d="M1 7L17 13" stroke="#E11D48" stroke-width="1.5"/>
<path d="M0.5 38L16.7367 31.2978" stroke="#E11D48" stroke-width="1.5"/>
<path d="M20.5 16.8143V27.8143" stroke="#E11D48" stroke-linecap="round"/>
</svg>
